<svg width="14" height="14" viewBox="0 0 14 14" fill="none" xmlns="http://www.w3.org/2000/svg">
<g clip-path="url(#clip0_105_109)">
<path d="M8.23669 6.1075L7.00002 7.34417L5.75752 6.1075L4.93502 6.93L6.17752 8.16667L4.94085 9.40333L5.76335 10.2258L7.00002 8.98917L8.23669 10.2258L9.05919 9.40333L7.82252 8.16667L9.05919 6.93L8.23669 6.1075ZM9.04169 2.33333L8.45835 1.75H5.54169L4.95835 2.33333H2.91669V3.5H11.0834V2.33333H9.04169ZM3.50002 11.0833C3.50002 11.725 4.02502 12.25 4.66669 12.25H9.33335C9.97502 12.25 10.5 11.725 10.5 11.0833V4.08333H3.50002V11.0833ZM4.66669 5.25H9.33335V11.0833H4.66669V5.25Z" fill="#FF5252"/>
</g>
<defs>
<clipPath id="clip0_105_109">
<rect width="14" height="14" fill="white"/>
</clipPath>
</defs>
</svg>
