<svg width="14" height="10" viewBox="0 0 14 10" fill="none" xmlns="http://www.w3.org/2000/svg">
<path d="M6.99998 1.79167C9.21081 1.79167 11.1825 3.03417 12.145 5C11.1825 6.96583 9.21665 8.20833 6.99998 8.20833C4.78331 8.20833 2.81748 6.96583 1.85498 5C2.81748 3.03417 4.78915 1.79167 6.99998 1.79167ZM6.99998 0.625C4.08331 0.625 1.59248 2.43917 0.583313 5C1.59248 7.56083 4.08331 9.375 6.99998 9.375C9.91665 9.375 12.4075 7.56083 13.4166 5C12.4075 2.43917 9.91665 0.625 6.99998 0.625ZM6.99998 3.54167C7.80498 3.54167 8.45831 4.195 8.45831 5C8.45831 5.805 7.80498 6.45833 6.99998 6.45833C6.19498 6.45833 5.54165 5.805 5.54165 5C5.54165 4.195 6.19498 3.54167 6.99998 3.54167ZM6.99998 2.375C5.55331 2.375 4.37498 3.55333 4.37498 5C4.37498 6.44667 5.55331 7.625 6.99998 7.625C8.44665 7.625 9.62498 6.44667 9.62498 5C9.62498 3.55333 8.44665 2.375 6.99998 2.375Z" fill="#4CAF50"/>
</svg>
